<?xml version="1.0" encoding="UTF-8" standalone="no"?>
<!-- Created with Inkscape (http://www.inkscape.org/) -->

<svg
   width="285.75mm"
   height="285.75mm"
   viewBox="0 0 285.75 285.75"
   version="1.1"
   id="svg1"
   xml:space="preserve"
   xmlns="http://www.w3.org/2000/svg"
   xmlns:svg="http://www.w3.org/2000/svg"><defs
     id="defs1" /><rect
     style="fill:none;stroke-width:0.712533;stroke-linecap:round;stroke-linejoin:round"
     id="rect2"
     width="285.75"
     height="285.75"
     x="-1.6940659e-21"
     y="-1.0587912e-22" /><g
     id="g4"
     style="fill:#000000;fill-opacity:1;stroke:#000000;stroke-opacity:1"
     transform="matrix(2.1157688,0,0,2.1157688,-80.678635,-51.037649)"><path
       id="path3"
       style="fill:#000000;fill-opacity:1;stroke:#000000;stroke-width:1.05833;stroke-linecap:round;stroke-linejoin:round;stroke-dasharray:none;stroke-opacity:1"
       d="m 67.260343,24.651599 c -27.8107,12.432968 -31.562135,49.702809 3.356385,62.836989 l -0.134359,31.418752 22.293215,25.18606 0.80098,-39.95518 c -8.54946,-1.1766 -13.42796,-5.517972 -14.63528,-13.024012 l 19.87165,6.98149 c 0.40916,5.777022 0.18545,11.427582 -0.67127,16.951422 l 7.518916,3.9274 7.51892,-3.9274 c -0.85672,-5.52384 -1.08044,-11.1744 -0.67128,-16.951422 l 19.87166,-6.98149 c -1.20732,7.50604 -6.08582,11.847412 -14.63528,13.024012 l 0.80098,39.95518 22.29321,-25.18606 -0.13435,-31.418752 c 34.91852,-13.13418 31.1676,-50.404021 3.3569,-62.836989 16.4267,23.555866 5.20276,35.684749 -8.45892,41.488429 10.99101,21.6862 -18.90133,17.50793 -29.94184,25.25582 C 94.620074,83.647958 64.728249,87.826228 75.719259,66.140028 62.057579,60.336348 50.833643,48.207465 67.260343,24.651599 Z m 38.400237,96.672651 c -2.64064,0.17903 -5.46023,0.85018 -8.458916,2.01383 l -0.93431,24.7003 9.393226,10.61228 9.39322,-10.61228 -0.93431,-24.7003 c -2.99869,-1.16365 -5.81827,-1.8348 -8.45891,-2.01383 z" /><path
       id="path4"
       style="fill:#000000;fill-opacity:1;stroke:#000000;stroke-width:1.05833;stroke-linecap:round;stroke-linejoin:round;stroke-dasharray:none;stroke-opacity:1"
       d="m 105.66071,58.011978 c -17.165796,0 -29.574156,11.45305 -28.095646,17.7517 0.80424,3.42616 17.56622,5.28999 28.096476,10.22728 10.53026,-4.93729 27.29224,-6.80112 28.09648,-10.22728 1.47851,-6.29865 -10.93151,-17.7517 -28.09731,-17.7517 z" /></g></svg>
