<?xml version="1.0" encoding="UTF-8" standalone="no"?>
<!-- Created with Inkscape (http://www.inkscape.org/) -->

<svg
   width="338.69983mm"
   height="380.44907mm"
   viewBox="0 0 338.69983 380.44907"
   version="1.1"
   id="svg1"
   xml:space="preserve"
   inkscape:version="1.4 (86a8ad7, 2024-10-11)"
   sodipodi:docname="heindall_logo_template_2.svg"
   xmlns:inkscape="http://www.inkscape.org/namespaces/inkscape"
   xmlns:sodipodi="http://sodipodi.sourceforge.net/DTD/sodipodi-0.dtd"
   xmlns="http://www.w3.org/2000/svg"
   xmlns:svg="http://www.w3.org/2000/svg"><sodipodi:namedview
     id="namedview1"
     pagecolor="#ffffff"
     bordercolor="#000000"
     borderopacity="0.25"
     inkscape:showpageshadow="2"
     inkscape:pageopacity="0.0"
     inkscape:pagecheckerboard="0"
     inkscape:deskcolor="#d1d1d1"
     inkscape:document-units="mm"
     inkscape:zoom="0.34835028"
     inkscape:cx="720.53911"
     inkscape:cy="377.4936"
     inkscape:window-width="1920"
     inkscape:window-height="1009"
     inkscape:window-x="-8"
     inkscape:window-y="-8"
     inkscape:window-maximized="1"
     inkscape:current-layer="svg1"
     showguides="false" /><defs
     id="defs1"><inkscape:path-effect
       effect="fillet_chamfer"
       id="path-effect2"
       is_visible="true"
       lpeversion="1"
       nodesatellites_param="F,0,0,1,0,0,0,1 @ F,0,0,1,0,0,0,1 @ F,0,0,1,0,0,0,1"
       radius="0"
       unit="px"
       method="auto"
       mode="F"
       chamfer_steps="1"
       flexible="false"
       use_knot_distance="true"
       apply_no_radius="true"
       apply_with_radius="true"
       only_selected="false"
       hide_knots="false" /></defs><rect
     style="fill:#000000;fill-opacity:1;stroke:none;stroke-width:0.477389;stroke-linecap:round;stroke-linejoin:round;stroke-opacity:1"
     id="rect1"
     width="169.52261"
     height="169.52261"
     x="0"
     y="41.749245"
     inkscape:export-filename="rect1.png"
     inkscape:export-xdpi="96"
     inkscape:export-ydpi="96" /><g
     id="g1"
     style="fill:#daa520;fill-opacity:1;stroke:#daa520;stroke-opacity:1"
     transform="translate(-20.899403,34.8594)"><path
       id="path1"
       style="fill:#daa520;fill-opacity:1;stroke:#daa520;stroke-width:1.05833;stroke-linecap:round;stroke-linejoin:round;stroke-dasharray:none;stroke-opacity:1"
       inkscape:label="lado_direito_capacete"
       d="m 67.260343,24.651599 c -27.8107,12.432968 -31.562135,49.702809 3.356385,62.836989 l -0.134359,31.418752 22.293215,25.18606 0.80098,-39.95518 c -8.54946,-1.1766 -13.42796,-5.517972 -14.63528,-13.024012 l 19.87165,6.98149 c 0.40916,5.777022 0.18545,11.427582 -0.67127,16.951422 l 7.518916,3.9274 7.51892,-3.9274 c -0.85672,-5.52384 -1.08044,-11.1744 -0.67128,-16.951422 l 19.87166,-6.98149 c -1.20732,7.50604 -6.08582,11.847412 -14.63528,13.024012 l 0.80098,39.95518 22.29321,-25.18606 -0.13435,-31.418752 c 34.91852,-13.13418 31.1676,-50.404021 3.3569,-62.836989 16.4267,23.555866 5.20276,35.684749 -8.45892,41.488429 10.99101,21.6862 -18.90133,17.50793 -29.94184,25.25582 C 94.620074,83.647958 64.728249,87.826228 75.719259,66.140028 62.057579,60.336348 50.833643,48.207465 67.260343,24.651599 Z m 38.400237,96.672651 c -2.64064,0.17903 -5.46023,0.85018 -8.458916,2.01383 l -0.93431,24.7003 9.393226,10.61228 9.39322,-10.61228 -0.93431,-24.7003 c -2.99869,-1.16365 -5.81827,-1.8348 -8.45891,-2.01383 z" /><path
       id="path2"
       style="fill:#daa520;fill-opacity:1;stroke:#daa520;stroke-width:1.05833;stroke-linecap:round;stroke-linejoin:round;stroke-dasharray:none;stroke-opacity:1"
       d="m 105.66071,58.011978 c -17.165796,0 -29.574156,11.45305 -28.095646,17.7517 0.80424,3.42616 17.56622,5.28999 28.096476,10.22728 10.53026,-4.93729 27.29224,-6.80112 28.09648,-10.22728 1.47851,-6.29865 -10.93151,-17.7517 -28.09731,-17.7517 z"
       sodipodi:nodetypes="sscss" /></g><rect
     style="fill:#000000;fill-opacity:1;stroke:none;stroke-width:0.477389;stroke-linecap:round;stroke-linejoin:round;stroke-opacity:1"
     id="rect14"
     width="169.52261"
     height="169.52261"
     x="0"
     y="210.92645" /><g
     id="g16"
     style="fill:#ffffff;fill-opacity:1;stroke:#ffffff;stroke-opacity:1"
     transform="translate(-20.899413,204.03661)"><path
       id="path15"
       style="fill:#ffffff;fill-opacity:1;stroke:#ffffff;stroke-width:1.05833;stroke-linecap:round;stroke-linejoin:round;stroke-dasharray:none;stroke-opacity:1"
       inkscape:label="lado_direito_capacete"
       d="m 67.260343,24.651599 c -27.8107,12.432968 -31.562135,49.702809 3.356385,62.836989 l -0.134359,31.418752 22.293215,25.18606 0.80098,-39.95518 c -8.54946,-1.1766 -13.42796,-5.517972 -14.63528,-13.024012 l 19.87165,6.98149 c 0.40916,5.777022 0.18545,11.427582 -0.67127,16.951422 l 7.518916,3.9274 7.51892,-3.9274 c -0.85672,-5.52384 -1.08044,-11.1744 -0.67128,-16.951422 l 19.87166,-6.98149 c -1.20732,7.50604 -6.08582,11.847412 -14.63528,13.024012 l 0.80098,39.95518 22.29321,-25.18606 -0.13435,-31.418752 c 34.91852,-13.13418 31.1676,-50.404021 3.3569,-62.836989 16.4267,23.555866 5.20276,35.684749 -8.45892,41.488429 10.99101,21.6862 -18.90133,17.50793 -29.94184,25.25582 C 94.620074,83.647958 64.728249,87.826228 75.719259,66.140028 62.057579,60.336348 50.833643,48.207465 67.260343,24.651599 Z m 38.400237,96.672651 c -2.64064,0.17903 -5.46023,0.85018 -8.458916,2.01383 l -0.93431,24.7003 9.393226,10.61228 9.39322,-10.61228 -0.93431,-24.7003 c -2.99869,-1.16365 -5.81827,-1.8348 -8.45891,-2.01383 z" /><path
       id="path16"
       style="fill:#ffffff;fill-opacity:1;stroke:#ffffff;stroke-width:1.05833;stroke-linecap:round;stroke-linejoin:round;stroke-dasharray:none;stroke-opacity:1"
       d="m 105.66071,58.011978 c -17.165796,0 -29.574156,11.45305 -28.095646,17.7517 0.80424,3.42616 17.56622,5.28999 28.096476,10.22728 10.53026,-4.93729 27.29224,-6.80112 28.09648,-10.22728 1.47851,-6.29865 -10.93151,-17.7517 -28.09731,-17.7517 z"
       sodipodi:nodetypes="sscss" /></g><rect
     style="fill:#f9f9f9;fill-opacity:1;stroke:none;stroke-width:0.477389;stroke-linecap:round;stroke-linejoin:round;stroke-opacity:1"
     id="rect16"
     width="169.52261"
     height="169.52261"
     x="169.17722"
     y="41.749245" /><rect
     style="fill:#f9f9f9;fill-opacity:1;stroke:none;stroke-width:0.477389;stroke-linecap:round;stroke-linejoin:round;stroke-opacity:1"
     id="rect17"
     width="169.52261"
     height="169.52261"
     x="169.17722"
     y="210.92645" /><g
     id="g25"
     style="fill:#000000;fill-opacity:1;stroke:#000000;stroke-opacity:1"
     transform="translate(148.27781,204.03661)"><path
       id="path23"
       style="fill:#000000;fill-opacity:1;stroke:#000000;stroke-width:1.05833;stroke-linecap:round;stroke-linejoin:round;stroke-dasharray:none;stroke-opacity:1"
       inkscape:label="lado_direito_capacete"
       d="m 67.260343,24.651599 c -27.8107,12.432968 -31.562135,49.702809 3.356385,62.836989 l -0.134359,31.418752 22.293215,25.18606 0.80098,-39.95518 c -8.54946,-1.1766 -13.42796,-5.517972 -14.63528,-13.024012 l 19.87165,6.98149 c 0.40916,5.777022 0.18545,11.427582 -0.67127,16.951422 l 7.518916,3.9274 7.51892,-3.9274 c -0.85672,-5.52384 -1.08044,-11.1744 -0.67128,-16.951422 l 19.87166,-6.98149 c -1.20732,7.50604 -6.08582,11.847412 -14.63528,13.024012 l 0.80098,39.95518 22.29321,-25.18606 -0.13435,-31.418752 c 34.91852,-13.13418 31.1676,-50.404021 3.3569,-62.836989 16.4267,23.555866 5.20276,35.684749 -8.45892,41.488429 10.99101,21.6862 -18.90133,17.50793 -29.94184,25.25582 C 94.620074,83.647958 64.728249,87.826228 75.719259,66.140028 62.057579,60.336348 50.833643,48.207465 67.260343,24.651599 Z m 38.400237,96.672651 c -2.64064,0.17903 -5.46023,0.85018 -8.458916,2.01383 l -0.93431,24.7003 9.393226,10.61228 9.39322,-10.61228 -0.93431,-24.7003 c -2.99869,-1.16365 -5.81827,-1.8348 -8.45891,-2.01383 z" /><path
       id="path24"
       style="fill:#000000;fill-opacity:1;stroke:#000000;stroke-width:1.05833;stroke-linecap:round;stroke-linejoin:round;stroke-dasharray:none;stroke-opacity:1"
       d="m 105.66071,58.011978 c -17.165796,0 -29.574156,11.45305 -28.095646,17.7517 0.80424,3.42616 17.56622,5.28999 28.096476,10.22728 10.53026,-4.93729 27.29224,-6.80112 28.09648,-10.22728 1.47851,-6.29865 -10.93151,-17.7517 -28.09731,-17.7517 z"
       sodipodi:nodetypes="sscss" /></g><g
     id="g26"
     style="fill:#daa520;fill-opacity:1;stroke:#daa520;stroke-opacity:1"
     transform="translate(148.27781,34.859399)"><path
       id="path25"
       style="fill:#daa520;fill-opacity:1;stroke:#daa520;stroke-width:1.05833;stroke-linecap:round;stroke-linejoin:round;stroke-dasharray:none;stroke-opacity:1"
       inkscape:label="lado_direito_capacete"
       d="m 67.260343,24.651599 c -27.8107,12.432968 -31.562135,49.702809 3.356385,62.836989 l -0.134359,31.418752 22.293215,25.18606 0.80098,-39.95518 c -8.54946,-1.1766 -13.42796,-5.517972 -14.63528,-13.024012 l 19.87165,6.98149 c 0.40916,5.777022 0.18545,11.427582 -0.67127,16.951422 l 7.518916,3.9274 7.51892,-3.9274 c -0.85672,-5.52384 -1.08044,-11.1744 -0.67128,-16.951422 l 19.87166,-6.98149 c -1.20732,7.50604 -6.08582,11.847412 -14.63528,13.024012 l 0.80098,39.95518 22.29321,-25.18606 -0.13435,-31.418752 c 34.91852,-13.13418 31.1676,-50.404021 3.3569,-62.836989 16.4267,23.555866 5.20276,35.684749 -8.45892,41.488429 10.99101,21.6862 -18.90133,17.50793 -29.94184,25.25582 C 94.620074,83.647958 64.728249,87.826228 75.719259,66.140028 62.057579,60.336348 50.833643,48.207465 67.260343,24.651599 Z m 38.400237,96.672651 c -2.64064,0.17903 -5.46023,0.85018 -8.458916,2.01383 l -0.93431,24.7003 9.393226,10.61228 9.39322,-10.61228 -0.93431,-24.7003 c -2.99869,-1.16365 -5.81827,-1.8348 -8.45891,-2.01383 z" /><path
       id="path26"
       style="fill:#daa520;fill-opacity:1;stroke:#daa520;stroke-width:1.05833;stroke-linecap:round;stroke-linejoin:round;stroke-dasharray:none;stroke-opacity:1"
       d="m 105.66071,58.011978 c -17.165796,0 -29.574156,11.45305 -28.095646,17.7517 0.80424,3.42616 17.56622,5.28999 28.096476,10.22728 10.53026,-4.93729 27.29224,-6.80112 28.09648,-10.22728 1.47851,-6.29865 -10.93151,-17.7517 -28.09731,-17.7517 z"
       sodipodi:nodetypes="sscss" /></g><rect
     style="fill:#ffd700;fill-opacity:1;stroke:none;stroke-width:0.449325;stroke-linecap:round;stroke-linejoin:round;stroke-opacity:1"
     id="rect26"
     width="24.550674"
     height="24.550674"
     x="96.139313"
     y="0" /><rect
     style="fill:#daa520;fill-opacity:1;stroke:none;stroke-width:0.449325;stroke-linecap:round;stroke-linejoin:round;stroke-opacity:1"
     id="rect27"
     width="24.550674"
     height="24.550674"
     x="126.5206"
     y="0" /><rect
     style="fill:#5c4033;fill-opacity:1;stroke:none;stroke-width:0.449325;stroke-linecap:round;stroke-linejoin:round;stroke-opacity:1"
     id="rect28"
     width="24.550674"
     height="24.550674"
     x="156.90187"
     y="0.31131744" /><rect
     style="fill:#f5f5dc;fill-opacity:1;stroke:none;stroke-width:0.449325;stroke-linecap:round;stroke-linejoin:round;stroke-opacity:1"
     id="rect29"
     width="24.550674"
     height="24.550674"
     x="185.7641"
     y="0.31131744" /><rect
     style="fill:#000000;fill-opacity:1;stroke:none;stroke-width:0.449325;stroke-linecap:round;stroke-linejoin:round;stroke-opacity:1"
     id="rect30"
     width="24.550674"
     height="24.550674"
     x="214.62633"
     y="0.31131744" /></svg>
